<svg id="Layer_1" data-name="Layer 1" xmlns="http://www.w3.org/2000/svg" viewBox="0 0 1038.08 801.22"><defs><style>.cls-1{fill:#00b3bc;}.cls-2{font-size:46.06px;font-family:adineuePROKZ-Bold, adineue PRO KZ;font-weight:700;letter-spacing:1.18em;}.cls-11,.cls-2,.cls-6{fill:#606161;}.cls-3{letter-spacing:1.19em;}.cls-4{letter-spacing:1.18em;}.cls-5{letter-spacing:0.62em;}.cls-6{font-size:23.02px;font-family:adineuePROKZ-Black, adineue PRO KZ;}.cls-7{letter-spacing:-0.02em;}.cls-8{letter-spacing:-0.03em;}.cls-9{letter-spacing:0em;}.cls-10{letter-spacing:0.01em;}</style></defs><title>anka logo</title><path class="cls-1" d="M1146.66,1587.09v18.84h-6.86v-31.55h8.57l9.26,20.86,9.26-20.86h8.56v31.55h-7V1587l-8.57,18.93h-4.69Z" transform="translate(-879.6 -1044.96)"/><path class="cls-1" d="M1233.67,1574.38h23.08v6.45h-15.94v5.94h14.74V1593h-14.74v6.45h16v6.45h-23.13Z" transform="translate(-879.6 -1044.96)"/><path class="cls-1" d="M1314.33,1574.38h12.9c9.72,0,16.07,6.91,16.07,15.61,0,8.89-6.68,15.94-16.44,15.94h-12.53Zm7.14,6.54v18.47h5.62a9.24,9.24,0,0,0-.23-18.47Z" transform="translate(-879.6 -1044.96)"/><path class="cls-1" d="M1400.78,1605.93v-31.55h7.15v31.55Zm.37-33.58v-5.9h6.45v5.9Z" transform="translate(-879.6 -1044.96)"/><path class="cls-1" d="M1484.48,1574.38h8.34l-12.53,15.75,12.9,15.8h-9.26l-10.69-13.45v13.45h-7.14v-31.55h7.14v14.69Z" transform="translate(-879.6 -1044.96)"/><path class="cls-1" d="M1569.65,1600.5h-12.39l-1.8,5.43h-7.32l11.14-31.55H1568l11.1,31.55h-7.69Zm-6.22-18.66-4.1,12.34h8.2Z" transform="translate(-879.6 -1044.96)"/><path class="cls-1" d="M1635.7,1574.38h7.14v25h14.65v6.54H1635.7Z" transform="translate(-879.6 -1044.96)"/><path class="cls-11" d="M1363.09,1376h-24.52v103.65l-17.88-15.81q-17.87-15.79-40.92-36t-41.47-36q-18.4-15.81-19.61-15.81h-24.52a13.55,13.55,0,0,0-8.72,3,14.09,14.09,0,0,0-6,11.88V1513.3a13.54,13.54,0,0,0,.88,4.91,15,15,0,0,0,5.77,7.41,15.85,15.85,0,0,0,8.72,2.18h23.87V1424.26l17.87,15.7q17.88,15.8,41,36t41.63,36q18.52,15.81,19.83,15.81h23a15.85,15.85,0,0,0,5.56-.66,16.06,16.06,0,0,0,4-1.85q6.21-4.9,6.21-12.21v-122.6a14.22,14.22,0,0,0-2.61-8.39A14,14,0,0,0,1363.09,1376Z" transform="translate(-879.6 -1044.96)"/><path class="cls-11" d="M1527.41,1447.15a.35.35,0,0,1,.22-.33h-.11q0-1.08,40.11-34.65,42-35.1,42.17-35.26a1.28,1.28,0,0,0,.33-.33.48.48,0,0,1,.22-.21.35.35,0,0,1,.16-.06s0,0,0-.11h-50.89a18,18,0,0,0-3.6.22,17.24,17.24,0,0,0-7,2.51l-73.56,61.79V1376h-26.16a18.89,18.89,0,0,0-4.47.44,13.34,13.34,0,0,0-7.08,3.6q-5,4.57-5,10.24v123q0,5.67,4.69,10.25a16.09,16.09,0,0,0,10.79,4h27.25v-64.3l78,60.27a17.49,17.49,0,0,0,11.22,4.25h52q.21-2.07.21-3.6,0-3.71-1.19-5.23Q1527.4,1452.7,1527.41,1447.15Z" transform="translate(-879.6 -1044.96)"/><path class="cls-11" d="M1065.53,1380.83a26.1,26.1,0,0,0-5.23-1.75,105.24,105.24,0,0,0-20.7-2h-2.84q-12,0-19.4,2.18a7.4,7.4,0,0,0-3.37,2l-4.8,8.39q-.65,1.1-78.9,139.28h.08q-19,33.51-50.77,89.65H921a13.19,13.19,0,0,0,8.39-3.27,16.89,16.89,0,0,0,2.51-2.83c.71-1.14,21.59-40,57.67-101.5h0q13.06-22.21,50.44-85.91h.11q1.74,3.5,54.93,93.29a17.25,17.25,0,0,0,6.1,7.52,13.11,13.11,0,0,0,7,2.18h41.3l-82.39-145.38A4.2,4.2,0,0,0,1065.53,1380.83Z" transform="translate(-879.6 -1044.96)"/><path class="cls-11" d="M1866.91,1528.93h.09q-78.26-138.18-78.9-139.28l-4.8-8.39a7.45,7.45,0,0,0-3.38-2q-7.41-2.17-19.39-2.18h-2.84a105.35,105.35,0,0,0-20.71,2,26.56,26.56,0,0,0-5.23,1.75,4.25,4.25,0,0,0-1.52,1.85l-82.39,145.38h41.3a13.11,13.11,0,0,0,7-2.18,17.32,17.32,0,0,0,6.1-7.52q53.17-89.8,54.93-93.29h.11q37.38,63.71,50.43,85.91h0c36.09,61.48,57,100.36,57.68,101.5a16.45,16.45,0,0,0,2.51,2.83,13.17,13.17,0,0,0,8.39,3.27h41.41Q1885.9,1562.45,1866.91,1528.93Z" transform="translate(-879.6 -1044.96)"/></svg>