<svg id="Layer_1" data-name="Layer 1" xmlns="http://www.w3.org/2000/svg" viewBox="0 0 1038.08 801.22"><defs><style>.cls-1{fill:#00b3bc;}.cls-2{font-size:46.06px;font-family:adineuePROKZ-Bold, adineue PRO KZ;font-weight:700;letter-spacing:1.18em;}.cls-11,.cls-2,.cls-6{fill:#606161;}.cls-3{letter-spacing:1.19em;}.cls-4{letter-spacing:1.18em;}.cls-5{letter-spacing:0.62em;}.cls-6{font-size:23.02px;font-family:adineuePROKZ-Black, adineue PRO KZ;}.cls-7{letter-spacing:-0.02em;}.cls-8{letter-spacing:-0.03em;}.cls-9{letter-spacing:0em;}.cls-10{letter-spacing:0.01em;}</style></defs><title>anka logo</title><path class="cls-11" d="M1281,1206.83h-.09q83.43-147.35,84.13-148.5l5.11-8.95a7.85,7.85,0,0,1,3.6-2.09q7.9-2.32,20.69-2.33h3a112.73,112.73,0,0,1,22.08,2.09,28.82,28.82,0,0,1,5.58,1.86,4.57,4.57,0,0,1,1.62,2l87.85,155h-44a13.9,13.9,0,0,1-7.43-2.32,18.33,18.33,0,0,1-6.51-8q-56.71-95.74-58.57-99.47h-.11q-39.87,67.92-53.79,91.6h0c-38.47,65.55-60.74,107-61.5,108.23a18.05,18.05,0,0,1-2.67,3,14.06,14.06,0,0,1-9,3.48h-44.15Z" transform="translate(-879.6 -1044.96)"/><path class="cls-1" d="M1516.33,1140.55h.09q-83.43,147.35-84.13,148.51l-5.11,9a8.13,8.13,0,0,1-3.61,2.09q-7.9,2.33-20.68,2.32h-3a112,112,0,0,1-22.08-2.09,28.82,28.82,0,0,1-5.58-1.86,4.56,4.56,0,0,1-1.63-2l-87.85-155h44a13.94,13.94,0,0,1,7.43,2.33,18.43,18.43,0,0,1,6.51,8q56.7,95.76,58.57,99.47h.11q39.87-67.92,53.79-91.59h0c38.47-65.56,60.74-107,61.5-108.23a17.24,17.24,0,0,1,2.67-3,14,14,0,0,1,9-3.49h44.15Q1536.57,1104.82,1516.33,1140.55Z" transform="translate(-879.6 -1044.96)"/><path class="cls-11" d="M1360,1067.05c3.18-5.61,4.85-8.54,5-8.72l5.11-8.95a7.85,7.85,0,0,1,3.6-2.09q7.9-2.32,20.69-2.33h3a112.73,112.73,0,0,1,22.08,2.09,28.82,28.82,0,0,1,5.58,1.86,4.57,4.57,0,0,1,1.62,2l87.85,155h-44a13.9,13.9,0,0,1-7.43-2.32,18.33,18.33,0,0,1-6.51-8q-56.71-95.74-58.57-99.47h-.11L1360,1160.56Z" transform="translate(-879.6 -1044.96)"/></svg>